<?xml version="1.0" encoding="UTF-8" standalone="no"?>
<!-- Created with Inkscape (http://www.inkscape.org/) -->

<svg
   xmlns:osb="http://www.openswatchbook.org/uri/2009/osb"
   xmlns:dc="http://purl.org/dc/elements/1.1/"
   xmlns:cc="http://creativecommons.org/ns#"
   xmlns:rdf="http://www.w3.org/1999/02/22-rdf-syntax-ns#"
   xmlns:svg="http://www.w3.org/2000/svg"
   xmlns="http://www.w3.org/2000/svg"
   xmlns:xlink="http://www.w3.org/1999/xlink"
   xmlns:sodipodi="http://sodipodi.sourceforge.net/DTD/sodipodi-0.dtd"
   xmlns:inkscape="http://www.inkscape.org/namespaces/inkscape"
   id="svg2"
   version="1.1"
   inkscape:version="0.48.2 r9819"
   width="501"
   height="294"
   sodipodi:docname="G5cZGrurlek.svg">
  <metadata
     id="metadata8">
    <rdf:RDF>
      <cc:Work
         rdf:about="">
        <dc:format>image/svg+xml</dc:format>
        <dc:type
           rdf:resource="http://purl.org/dc/dcmitype/StillImage" />
        <dc:title></dc:title>
      </cc:Work>
    </rdf:RDF>
  </metadata>
  <defs
     id="defs6">
    <linearGradient
       id="linearGradient3769"
       osb:paint="solid">
      <stop
         style="stop-color:#ffffff;stop-opacity:1;"
         offset="0"
         id="stop3771" />
    </linearGradient>
    <linearGradient
       inkscape:collect="always"
       xlink:href="#linearGradient3769"
       id="linearGradient3773"
       x1="72.369233"
       y1="117.10846"
       x2="118.78154"
       y2="117.10846"
       gradientUnits="userSpaceOnUse" />
    <linearGradient
       inkscape:collect="always"
       xlink:href="#linearGradient3769"
       id="linearGradient3794"
       gradientUnits="userSpaceOnUse"
       x1="72.369233"
       y1="117.10846"
       x2="118.78154"
       y2="117.10846"
       gradientTransform="matrix(0.54330746,0,0,0.54330746,33.050489,64.080636)" />
    <linearGradient
       inkscape:collect="always"
       xlink:href="#linearGradient3769-5"
       id="linearGradient3794-4"
       gradientUnits="userSpaceOnUse"
       x1="72.369232"
       y1="117.10846"
       x2="118.78154"
       y2="117.10846"
       gradientTransform="matrix(0.54330746,0,0,0.54330746,33.050489,64.080636)" />
    <linearGradient
       id="linearGradient3769-5"
       osb:paint="solid">
      <stop
         style="stop-color:#ffffff;stop-opacity:1;"
         offset="0"
         id="stop3771-8" />
    </linearGradient>
    <linearGradient
       y2="117.10846"
       x2="118.78154"
       y1="117.10846"
       x1="72.369232"
       gradientTransform="matrix(0.54330746,0,0,0.54330746,41.808892,55.427326)"
       gradientUnits="userSpaceOnUse"
       id="linearGradient3811"
       xlink:href="#linearGradient3769-5"
       inkscape:collect="always" />
  </defs>
  <sodipodi:namedview
     pagecolor="#ffffff"
     bordercolor="#666666"
     borderopacity="1"
     objecttolerance="10"
     gridtolerance="10"
     guidetolerance="10"
     inkscape:pageopacity="0"
     inkscape:pageshadow="2"
     inkscape:window-width="1366"
     inkscape:window-height="744"
     id="namedview4"
     showgrid="false"
     inkscape:zoom="4"
     inkscape:cx="57.532457"
     inkscape:cy="147"
     inkscape:window-x="0"
     inkscape:window-y="24"
     inkscape:window-maximized="1"
     inkscape:current-layer="svg2" />
  <image
     width="501"
     height="294"
     xlink:href="file:///home/nosetr/G5cZGrurlek.png"
     id="image10"
     x="0"
     y="0" />
  <path
     style="fill:#808080;fill-opacity:1;stroke:none"
     d="m 84.45725,116.00001 c -2.612553,0.009 -0.553934,3.29519 -2.964059,4.30358 -2.410124,1.00837 -3.31783,-2.76595 -5.158604,-0.912 -1.84077,1.85392 1.931702,2.74135 0.940518,5.15859 -0.991181,2.41724 -4.284394,0.38 -4.275085,2.99255 0.0093,2.61256 3.295206,0.55394 4.303585,2.96406 1.008385,2.41013 -2.765953,3.31785 -0.912016,5.15863 1.853938,1.84077 2.712853,-1.93171 5.130102,-0.94052 2.417249,0.99117 0.408508,4.28438 3.021062,4.27508 2.612553,-0.009 0.553935,-3.2952 2.96406,-4.30361 2.410122,-1.00837 3.317829,2.76599 5.158603,0.91204 1.840772,-1.85395 -1.931701,-2.71287 -0.94052,-5.13009 0.991181,-2.41728 4.284396,-0.40851 4.275085,-3.02108 -0.0093,-2.61255 -3.295203,-0.55394 -4.303586,-2.96407 -1.008381,-2.41013 2.765956,-3.31781 0.91202,-5.15859 -1.85394,-1.84077 -2.741354,1.93171 -5.158603,0.94052 -2.41725,-0.99118 -0.380007,-4.28438 -2.992562,-4.27509 z m 0,8.57867 c 1.728506,0 3.125892,1.40659 3.135063,3.13506 l -3.135063,0.0283 3.135063,0 c 0,1.73503 -1.400052,3.13507 -3.135063,3.13507 -1.735011,0 -3.135061,-1.40004 -3.135061,-3.13507 0,-1.73501 1.40005,-3.16356 3.135061,-3.16356 z"
     id="path2989"
     inkscape:export-filename="/var/www/nightZend/public/images/edit.png"
     inkscape:export-xdpi="90"
     inkscape:export-ydpi="90"
     inkscape:connector-curvature="0" />
  <path
     inkscape:connector-curvature="0"
     style="fill:#333333;fill-opacity:1;stroke:none"
     d="m 84.457252,139 c -2.612557,0.009 -0.553938,3.29521 -2.96406,4.30358 -2.410126,1.00839 -3.317832,-2.76593 -5.158604,-0.912 -1.840771,1.85394 1.9317,2.74134 0.940518,5.15859 -0.991181,2.41726 -4.284394,0.38001 -4.275086,2.99257 0.0093,2.61256 3.295206,0.55393 4.303589,2.96405 1.008382,2.41013 -2.765958,3.31784 -0.912019,5.15863 1.853936,1.84076 2.712853,-1.93171 5.130102,-0.94053 2.41725,0.99117 0.408506,4.28439 3.021061,4.27509 2.612555,-0.009 0.553934,-3.29522 2.96406,-4.30359 2.410124,-1.00839 3.317828,2.76596 5.1586,0.91202 1.840774,-1.85395 -1.9317,-2.71287 -0.940519,-5.13012 0.991181,-2.41724 4.284397,-0.4085 4.275087,-3.02105 -0.0093,-2.61256 -3.295204,-0.55394 -4.303587,-2.96407 -1.008381,-2.41014 2.765951,-3.31782 0.912018,-5.15858 -1.85393,-1.84078 -2.741352,1.93169 -5.1586,0.9405 -2.417249,-0.99117 -0.380007,-4.28438 -2.99256,-4.27509 z m 0,8.57868 c 1.728505,0 3.12589,1.40659 3.135063,3.13505 l -3.135063,0.0283 3.135063,0 c 0,1.73503 -1.400053,3.13505 -3.135063,3.13505 -1.735012,0 -3.135064,-1.40002 -3.135064,-3.13505 0,-1.73501 1.400052,-3.16355 3.135064,-3.16355 z"
     id="path2989-4"
     inkscape:export-filename="/var/www/nightZend/public/images/edit.png"
     inkscape:export-xdpi="90"
     inkscape:export-ydpi="90" />
  <path
     sodipodi:type="star"
     style="fill:#333333;fill-opacity:1;stroke:none"
     id="path2992-4"
     sodipodi:sides="3"
     sodipodi:cx="30.5"
     sodipodi:cy="159.25"
     sodipodi:r1="35.75"
     sodipodi:r2="17.875"
     sodipodi:arg1="1.5707963"
     sodipodi:arg2="2.6179939"
     inkscape:flatsided="true"
     inkscape:rounded="0"
     inkscape:randomized="0"
     d="m 30.500001,195 -30.96040966,-53.625 61.92081666,0 z"
     inkscape:transform-center-y="0.83333764"
     transform="matrix(0.20994555,0,0,0.09324009,111.09666,134.31818)"
     inkscape:export-filename="/var/www/nightZend/public/images/edit.png"
     inkscape:export-xdpi="90"
     inkscape:export-ydpi="90" />
  <path
     sodipodi:type="star"
     style="fill:#808080;fill-opacity:1;stroke:none"
     id="path2992-4-7"
     sodipodi:sides="3"
     sodipodi:cx="30.5"
     sodipodi:cy="159.25"
     sodipodi:r1="35.75"
     sodipodi:r2="17.875"
     sodipodi:arg1="1.5707963"
     sodipodi:arg2="2.6179939"
     inkscape:flatsided="true"
     inkscape:rounded="0"
     inkscape:randomized="0"
     d="m 30.500001,195 -30.96040966,-53.625 61.92081666,0 z"
     inkscape:transform-center-y="0.83333764"
     transform="matrix(0.20994555,0,0,0.09324009,111.09666,111.31818)"
     inkscape:export-filename="/var/www/nightZend/public/images/edit.png"
     inkscape:export-xdpi="90"
     inkscape:export-ydpi="90" />
</svg>
