<?xml version="1.0" encoding="UTF-8" standalone="no"?>
<!-- Created with Inkscape (http://www.inkscape.org/) -->

<svg
   xmlns:osb="http://www.openswatchbook.org/uri/2009/osb"
   xmlns:dc="http://purl.org/dc/elements/1.1/"
   xmlns:cc="http://creativecommons.org/ns#"
   xmlns:rdf="http://www.w3.org/1999/02/22-rdf-syntax-ns#"
   xmlns:svg="http://www.w3.org/2000/svg"
   xmlns="http://www.w3.org/2000/svg"
   xmlns:sodipodi="http://sodipodi.sourceforge.net/DTD/sodipodi-0.dtd"
   xmlns:inkscape="http://www.inkscape.org/namespaces/inkscape"
   id="svg3039"
   version="1.1"
   inkscape:version="0.48.2 r9819"
   width="600"
   height="600"
   sodipodi:docname="no-photo.jpg">
  <metadata
     id="metadata3045">
    <rdf:RDF>
      <cc:Work
         rdf:about="">
        <dc:format>image/svg+xml</dc:format>
        <dc:type
           rdf:resource="http://purl.org/dc/dcmitype/StillImage" />
        <dc:title></dc:title>
      </cc:Work>
    </rdf:RDF>
  </metadata>
  <defs
     id="defs3043">
    <linearGradient
       id="linearGradient3819"
       osb:paint="solid">
      <stop
         style="stop-color:#000000;stop-opacity:1;"
         offset="0"
         id="stop3821" />
    </linearGradient>
  </defs>
  <sodipodi:namedview
     pagecolor="#ffffff"
     bordercolor="#666666"
     borderopacity="1"
     objecttolerance="10"
     gridtolerance="10"
     guidetolerance="10"
     inkscape:pageopacity="0"
     inkscape:pageshadow="2"
     inkscape:window-width="1366"
     inkscape:window-height="744"
     id="namedview3041"
     showgrid="false"
     inkscape:zoom="0.70357125"
     inkscape:cx="300"
     inkscape:cy="300"
     inkscape:window-x="0"
     inkscape:window-y="24"
     inkscape:window-maximized="1"
     inkscape:current-layer="svg3039" />
  <path
     style="fill:#808080;stroke:none"
     d="m 278.92132,557.83341 c -1.65,-0.22857 -8.4,-1.14252 -15,-2.031 -32.33259,-4.35256 -64.8565,-15.91155 -95.33228,-33.88109 -7.70085,-4.54068 -22.43803,-14.75894 -27.75145,-19.24193 -1.14606,-0.96694 -3.4739,-2.81132 -5.173,-4.09862 -3.78989,-2.87138 -21.12227,-19.83648 -27.23661,-26.65945 -7.30083,-8.14698 -20.41824,-26.21249 -27.19024,-37.44685 -5.464,-9.06446 -16.66832,-30.59402 -17.46158,-33.55315 -0.14744,-0.55 -2.07371,-5.95 -4.28059,-12 -5.10772,-14.00242 -9.40347,-30.47524 -12.25657,-47 -1.95383,-11.31629 -2.24594,-16.56169 -2.25543,-40.5 -0.01,-24.22163 0.26166,-29.04977 2.27538,-40.5 2.97496,-16.9159 7.2441,-33.31338 12.23662,-47 2.20688,-6.05 4.12936,-11.45 4.27216,-12 0.72512,-2.79265 11.32069,-23.28471 16.80437,-32.5 21.72418,-36.50733 52.7771,-67.7304 88.01771,-88.500003 9.64495,-5.6844 30.23888,-16.270711 33.33151,-17.134066 0.55,-0.153541 5.95,-2.084796 12,-4.291678 14.00242,-5.10772 30.47524,-9.403469 47,-12.256573 11.33163,-1.956477 16.52924,-2.244531 40.5,-2.244531 23.97076,0 29.16837,0.288054 40.5,2.244531 16.52476,2.853104 32.99758,7.148853 47,12.256573 6.04995,2.206882 11.44995,4.151898 11.99995,4.322257 3.6705,1.136909 23.7164,11.421947 33.3353,17.103487 11.3908,6.72818 29.4389,19.800093 33.4814,24.250003 1.1242,1.2375 2.4207,2.25 2.881,2.25 0.7133,0 23.3115,22.57852 27.0338,27.01027 6.4624,7.69405 19.816,26.79078 25.602,36.61283 5.9727,10.13911 14.6419,27.10375 15.7785,30.8769 0.1657,0.55 2.1069,5.95 4.3138,12 5.1208,14.0383 9.4139,30.51693 12.2446,47 3.0224,17.5991 3.3168,59.64795 0.5425,77.5 -3.1493,20.26601 -11.3464,50.31522 -16.5037,60.5 -0.8355,1.65 -1.4028,3 -1.2606,3 0.1422,0 -2.0146,4.725 -4.7927,10.5 -14.1664,29.44788 -35.4436,58.1475 -58.6559,79.11771 -10.8202,9.7751 -37.6653,29.88229 -39.8959,29.88229 -0.2413,0 -3.9395,2.06965 -8.218,4.59922 -6.684,3.95167 -22.8067,12.05129 -25.8861,13.00448 -0.55,0.17024 -5.95,2.11517 -11.99995,4.32205 -13.96783,5.0951 -30.55804,9.42431 -46.5,12.13416 -9.75777,1.65865 -17.76509,2.19531 -36.5,2.44628 -13.2,0.17682 -25.35,0.13448 -27,-0.0941 z m 48.19878,-41.95322 c 6.49067,-0.84762 16.07622,-2.43001 21.30122,-3.51641 10.78712,-2.24291 36.12425,-10.62737 37.23469,-12.32156 0.40408,-0.61649 0.74158,-0.77964 0.75,-0.36255 0.008,0.4171 5.07781,-1.77348 11.26526,-4.86794 11.8592,-5.93092 33.9561,-20.15902 39.5753,-25.48236 l 3.3254,-3.15018 L 288.82035,314.39928 C 205.35698,230.92033 136.58559,162.82666 135.99504,163.08001 c -1.76959,0.75916 -9.90705,11.3611 -9.90705,12.90746 0,0.78862 -0.21584,1.21801 -0.47964,0.95421 -0.88189,-0.88188 -11.33143,15.84618 -17.16575,27.47964 -14.97843,29.86653 -21.79079,57.30792 -22.71498,91.5 -0.53025,19.61761 0.77355,34.99469 4.32423,51 4.99272,22.50558 17.51788,52.86265 29.07129,70.45973 5.25657,8.00633 8.68894,12.57988 6.78456,9.04027 -0.44387,-0.825 -0.42186,-1.14948 0.0489,-0.72106 0.47076,0.42842 0.95659,1.46478 1.07962,2.30303 0.44242,3.01443 9.13573,13.1741 23.27043,27.19561 7.91606,7.85267 14.62738,14.04303 14.91405,13.75636 0.28667,-0.28667 1.10989,0.31922 1.82937,1.34643 2.19525,3.13416 26.17604,18.53555 38.37124,24.64351 22.72886,11.38372 49.64305,19.1032 76,21.79817 9.78983,1.00101 35.082,0.52327 45.69879,-0.86318 z M 156.3036,408.04074 c -8.65033,-3.0912 -15.58686,-9.43151 -18.98086,-17.3494 -1.81067,-4.22412 -1.90142,-7.919 -1.90142,-77.41587 l 0,-72.98005 2.68881,-5.49127 c 2.98625,-6.09871 8.02317,-11.14556 14.51613,-14.54475 3.49883,-1.83171 6.33427,-2.32119 15.29506,-2.64038 l 11,-0.39184 32,31.93996 c 17.6,17.56698 32.59261,32.65555 33.3169,33.53015 1.10019,1.32849 1.04012,2.01261 -0.36501,4.15711 -0.92505,1.4118 -1.33541,2.56692 -0.91191,2.56692 0.4235,0 0.0701,0.7875 -0.78541,1.75 -3.63954,4.09489 -7.75457,19.55959 -7.75457,29.14247 0,8.08762 2.75895,19.02325 7.08962,28.10107 3.33724,6.99542 5.53092,9.93636 12.43702,16.67356 20.19759,19.70363 47.48845,24.26091 72.47336,12.10227 9.14735,-4.45146 10.00571,-4.79595 9.73775,-3.90818 -0.13076,0.43322 5.79821,6.82918 13.1755,14.21324 7.37729,7.38407 15.1971,15.33807 17.37736,17.67557 l 3.96411,4.25 -105.37736,-0.0439 c -83.54092,-0.0348 -106.12703,-0.31179 -108.99508,-1.33669 z m 314.10567,28.01867 c 3.7952,-4.45647 5.9512,-7.9276 5.4388,-8.75661 -0.2527,-0.40881 0.068,-1.06891 0.7114,-1.46689 0.791,-0.48882 0.9109,-0.26789 0.3696,0.6809 -2.1908,3.84052 1.7657,-1.48252 6.7904,-9.13576 14.528,-22.12767 25.8117,-51.80667 31.3506,-82.45973 2.7941,-15.46354 2.5644,-52.76483 -0.425,-69 -5.6178,-30.51002 -16.0569,-57.63179 -30.9843,-80.5 -4.9475,-7.57943 -8.958,-12.99816 -6.7317,-9.09549 0.5413,0.94879 0.4214,1.16972 -0.3696,0.6809 -0.6439,-0.39798 -0.9014,-1.15943 -0.5722,-1.69211 0.3292,-0.53268 -1.9923,-4.21408 -5.1589,-8.1809 -6.8303,-8.55629 -32.3296,-33.87831 -33.4304,-33.19798 -0.4219,0.26075 -1.0173,-0.17786 -1.323,-0.9747 -0.3058,-0.79684 -2.0913,-2.48175 -3.9677,-3.74426 -18.9422,-12.74469 -24.8745,-16.37295 -35.2179,-21.5397 -31.49271,-15.731203 -65.69109,-23.093673 -101.96805,-21.952423 -33.01711,1.0387 -61.12515,7.99499 -89.5,22.149813 -11.96365,5.96808 -34.06423,20.19954 -39.82391,25.64424 l -3.32392,3.14214 151.7748,151.8151 c 83.47618,83.4983 152.24148,151.52666 152.81188,151.17414 0.5704,-0.35253 2.1675,-1.96833 3.5491,-3.59068 z m -66.2144,-70.12203 -41.47543,-41.48394 -0.5911,-8.76606 c -0.84062,-12.46638 -5.21953,-24.23605 -12.56268,-33.76606 -2.11896,-2.75 -4.40173,-4.87635 -5.07282,-4.72522 -0.6711,0.15112 -0.95984,-0.14647 -0.64164,-0.66132 0.7808,-1.26336 -8.4009,-9.24941 -9.70649,-8.4425 -0.56783,0.35093 -0.74679,0.17592 -0.3977,-0.38892 0.6936,-1.12228 -8.822,-6.08426 -16.82569,-8.77388 -2.75,-0.92413 -9.05,-1.99446 -14,-2.37851 l -9,-0.69828 -22.27912,-22.37833 c -12.25351,-12.30809 -22.11669,-22.86764 -21.91817,-23.46569 0.19851,-0.59804 3.63655,-3.01979 7.64008,-5.38167 24.8812,-14.67862 56.36033,-14.87824 81.27706,-0.5154 4.24591,2.44749 9.93703,6.44342 12.64693,8.87985 l 4.92708,4.42987 18.60307,0 18.60302,0 0,-3.96607 c 0,-8.28462 5.0336,-14.0525 12.9021,-14.78445 3.6492,-0.33946 5.3171,0.0611 8.0834,1.94142 4.4247,3.00761 5.9813,6.11004 5.9998,11.95868 l 0.015,4.64957 12.75,0.38518 c 11.4076,0.34463 13.2765,0.66167 17.75,3.01113 6.2453,3.27998 10.6176,7.81524 13.9307,14.44977 l 2.5693,5.14522 0,73.20955 0,73.20955 -2.5748,5.14522 c -1.4161,2.82988 -3.5536,6.22114 -4.75,7.53613 -2.892,3.17884 -10.6418,8.1091 -12.7465,8.1091 -0.9239,0 -20.3437,-18.66777 -43.1551,-41.48394 z M 315.39768,227.43397 c 2.6342,-1.40978 6.02364,-7.27884 6.02364,-10.43034 0,-3.9226 -2.61361,-8.33114 -5.96727,-10.06538 -2.23124,-1.15382 -6.44774,-1.51693 -17.61499,-1.51693 l -14.68159,0 -3.28488,3.48299 c -5.70382,6.04781 -5.28251,12.3582 1.16361,17.42871 2.42302,1.90595 3.9586,2.0883 17.58572,2.0883 8.21199,0 15.76108,-0.44431 16.77576,-0.98735 z"
     id="path3049"
     inkscape:connector-curvature="0"
     sodipodi:nodetypes="sssssssssscsscsssssssssssssscssssssssssssssssscsccssssssssssssssssscsscssscsssscssssssscsccscccssssccssscssssscscsccsscscssscssssscccsssccssccccccsccsssscssss" />
</svg>
